<?xml version="1.0" standalone="no"?>
<!DOCTYPE svg PUBLIC "-//W3C//DTD SVG 20010904//EN"
 "http://www.w3.org/TR/2001/REC-SVG-20010904/DTD/svg10.dtd">
<svg version="1.0" xmlns="http://www.w3.org/2000/svg"
 width="2560.000000pt" height="1440.000000pt" viewBox="0 0 2560.000000 1440.000000"
 preserveAspectRatio="xMidYMid meet">
<metadata>
Created by potrace 1.15, written by Peter Selinger 2001-2017
</metadata>
<g transform="translate(0.000000,1440.000000) scale(0.100000,-0.100000)"
fill="#000000" stroke="none">
<path d="M0 14380 c0 -11 5 -20 10 -20 6 0 10 -7 10 -15 0 -8 -4 -15 -10 -15
-6 0 -10 -48 -10 -125 0 -98 3 -125 13 -125 17 0 47 -32 47 -49 0 -8 -6 -11
-15 -7 -8 3 -22 3 -30 0 -19 -8 -21 -80 -1 -87 23 -9 26 -46 5 -52 -17 -6 -19
-17 -19 -122 0 -111 1 -116 25 -135 22 -17 23 -21 11 -34 -8 -8 -19 -14 -25
-14 -15 0 -14 -113 0 -127 8 -8 8 -13 0 -17 -6 -4 -11 -24 -11 -45 0 -30 4
-40 20 -44 20 -5 42 -45 33 -59 -2 -5 -15 -8 -29 -8 -21 0 -24 -4 -24 -40 0
-28 4 -40 15 -40 17 0 35 -30 35 -61 0 -17 -3 -20 -11 -12 -6 6 -18 9 -25 6
-20 -7 -19 -79 1 -87 20 -7 20 -56 0 -56 -12 0 -15 -20 -15 -120 0 -70 4 -120
10 -120 5 0 15 -10 21 -22 10 -18 8 -24 -10 -39 -22 -18 -30 -79 -11 -79 6 0
15 -10 20 -22 6 -18 4 -27 -11 -40 -17 -14 -19 -30 -19 -145 0 -80 4 -133 11
-140 8 -8 8 -13 0 -17 -20 -13 -13 -80 9 -94 13 -8 20 -23 20 -43 0 -26 -3
-29 -20 -24 -18 6 -20 2 -20 -54 0 -49 3 -61 18 -65 15 -5 18 -18 17 -94 0
-77 -2 -87 -18 -84 -15 3 -17 -8 -17 -109 0 -95 2 -110 15 -105 12 4 15 -4 15
-39 0 -33 -4 -45 -15 -45 -13 0 -15 -160 -15 -1383 0 -1093 3 -1386 12 -1396
10 -11 10 -14 1 -18 -10 -4 -13 -883 -13 -4349 l0 -4344 12800 0 12800 0 0
3070 c0 2720 -2 3071 -15 3076 -8 4 -15 12 -15 20 0 8 7 14 15 14 12 0 15 19
15 110 0 91 -3 110 -15 110 -8 0 -15 9 -15 20 0 11 7 20 15 20 13 0 15 50 15
391 0 367 -1 390 -17 385 -10 -3 -24 -2 -32 3 -21 13 -5 41 24 41 l25 0 0 104
0 105 -27 3 c-17 2 -28 9 -28 18 0 10 10 15 28 15 l27 -1 0 3448 0 3448
-12229 0 c-9774 0 -12231 -3 -12235 -12 -5 -10 -7 -10 -12 0 -4 9 -60 12 -229
12 l-223 0 -6 -42 c-5 -41 -7 -670 -6 -2038 0 -327 -2 -1056 -4 -1620 -3 -564
-4 -1088 -3 -1165 2 -221 -8 -675 -18 -840 -3 -49 -1 -124 5 -165 11 -76 14
-296 7 -470 -2 -52 -1 -156 4 -230 4 -74 4 -209 -1 -300 -5 -93 -4 -188 1
-219 6 -36 5 -59 -2 -67 -7 -8 -7 -19 -1 -30 11 -19 4 -103 -10 -121 -7 -9 -5
-18 7 -29 15 -15 16 -32 9 -148 -4 -72 -7 -140 -5 -151 7 -52 9 -581 1 -594
-4 -8 -3 -22 3 -33 9 -14 9 -23 -2 -39 -10 -17 -10 -23 -1 -29 8 -5 10 -28 6
-71 -7 -90 -23 -141 -53 -165 l-25 -22 20 -20 c45 -45 54 -78 51 -190 -1 -59
-8 -124 -15 -144 -9 -27 -10 -45 -2 -71 18 -59 9 -67 -76 -67 -41 0 -78 5 -81
10 -4 6 -9 59 -12 119 l-6 108 33 6 c18 4 47 7 64 7 34 0 64 15 53 26 -3 4
-36 6 -71 6 -41 -1 -68 3 -73 11 -4 7 -8 233 -9 502 -1 270 -5 518 -9 553 -6
56 -9 63 -27 60 -20 -3 -31 9 -42 45 -8 25 -25 21 -36 -8 -12 -32 -24 -32 -38
0 -7 15 -17 22 -26 19 -8 -3 -17 -1 -21 5 -3 6 -15 11 -26 11 -25 0 -25 30 1
37 23 6 27 33 6 33 -8 0 -21 -12 -28 -26 -26 -53 -41 -10 -18 52 7 18 17 24
38 24 15 0 33 -5 39 -11 9 -9 18 -8 38 5 14 9 30 14 36 11 13 -9 70 5 64 15
-2 4 -53 8 -112 9 -105 2 -133 10 -133 37 0 22 22 29 95 30 117 3 114 2 85 19
-14 7 -39 20 -56 28 -69 32 -53 43 81 55 56 5 79 11 77 20 -1 7 2 21 7 30 7
12 4 24 -7 40 -17 22 -18 22 -212 47 -14 1 -34 3 -44 4 -11 0 -16 4 -12 8 4 5
67 13 139 18 l132 10 -1 48 c0 26 -5 52 -11 58 -13 13 -126 28 -215 29 -67 0
-97 13 -55 24 12 3 76 6 142 6 81 0 125 4 133 12 16 16 15 93 -1 105 -6 6 -39
13 -72 17 -61 7 -103 30 -74 40 8 3 46 7 84 8 l70 3 -1 48 c0 26 -5 52 -10 57
-6 6 -72 17 -148 25 -76 8 -141 17 -144 20 -13 13 15 17 149 21 78 3 146 7
151 10 10 6 10 75 0 90 -10 16 -47 22 -197 34 -71 6 -134 15 -139 20 -21 21
19 29 123 25 58 -2 131 -2 163 2 l58 6 0 38 c0 50 -18 65 -84 73 -94 12 -80
38 27 51 l58 7 -3 61 -3 62 -72 14 c-40 8 -73 18 -73 23 0 4 25 9 55 9 30 1
60 3 65 4 6 1 15 3 20 4 15 2 13 121 -2 126 -7 2 -55 9 -107 14 -52 6 -99 15
-105 21 -13 13 1 14 124 15 l94 0 8 43 c10 61 -3 88 -49 99 l-38 10 43 7 43 8
-3 71 -3 71 -35 10 -35 10 35 5 35 6 4 355 c4 408 2 529 -7 695 -1 6 4 84 9
175 6 91 10 176 9 190 -1 14 -1 367 0 785 1 810 1 952 -1 2403 l-1 932 -229 0
c-222 0 -229 -1 -229 -20z m10050 -759 c8 -70 8 -97 -1 -108 -9 -10 -9 -23 1
-53 12 -36 11 -42 -5 -60 -15 -16 -16 -24 -7 -43 16 -33 28 -502 12 -512 -6
-4 -14 -5 -16 -2 -3 3 -8 190 -11 415 -5 365 -2 474 12 460 2 -2 9 -46 15 -97z
m-652 -464 c9 -6 12 -59 10 -215 -2 -142 2 -220 10 -249 14 -47 15 -48 41 -33
24 13 166 50 191 50 22 0 89 -35 105 -54 6 -7 34 -25 63 -41 48 -26 52 -30 36
-42 -9 -7 -22 -14 -28 -16 -8 -3 -8 -8 1 -18 10 -13 -3 -23 -84 -63 l-96 -48
-91 7 c-144 9 -136 24 -141 -243 -2 -122 -6 -226 -9 -231 -3 -5 -31 -12 -62
-16 -32 -4 -64 -10 -73 -15 -9 -4 -35 -14 -58 -20 -36 -11 -46 -11 -67 4 -27
17 -29 21 -45 132 -9 59 -8 78 4 108 8 19 15 49 15 65 0 28 -2 30 -23 22 -13
-5 -127 -67 -253 -137 -216 -120 -362 -199 -481 -261 -100 -52 -115 -51 607
-18 184 8 364 20 400 26 147 25 145 25 197 -21 27 -23 58 -46 71 -51 25 -10
85 -12 94 -4 3 3 -1 37 -8 76 -15 76 -11 204 7 225 23 27 118 84 142 84 25 0
52 -23 44 -37 -3 -5 -9 -66 -12 -136 l-8 -127 23 0 c32 0 90 38 101 67 5 13 9
117 9 231 1 193 2 205 16 178 11 -19 14 -40 9 -63 -6 -32 10 -247 21 -286 5
-14 17 -8 77 40 40 32 82 64 95 71 26 15 216 27 269 17 29 -5 34 -9 21 -16
-10 -5 -14 -17 -11 -29 3 -11 1 -20 -4 -20 -5 0 -17 -15 -28 -32 -10 -18 -28
-43 -39 -54 -12 -12 -48 -54 -81 -95 -33 -40 -69 -82 -80 -94 -11 -11 -29 -37
-40 -58 -11 -20 -27 -39 -36 -42 -9 -3 -21 -17 -27 -30 -6 -14 -16 -25 -22
-25 -5 0 -10 -7 -10 -15 0 -8 -4 -15 -9 -15 -4 0 -12 -15 -18 -32 -7 -26 -14
-32 -30 -30 -26 4 -40 -18 -49 -76 -5 -34 -3 -42 14 -51 17 -9 25 -3 63 45 24
30 55 57 67 61 13 3 19 9 14 12 -7 4 -5 23 5 54 11 34 18 45 25 35 7 -10 10
-9 19 5 6 9 33 45 61 78 27 33 51 66 52 74 1 7 16 25 34 40 17 15 36 41 40 58
5 18 12 30 16 29 13 -6 64 48 136 143 37 50 95 119 129 155 33 36 61 68 61 71
0 3 26 33 58 66 64 67 83 90 159 182 29 35 53 69 53 75 0 20 51 61 105 86 51
23 115 76 115 94 1 27 48 68 82 70 l35 3 -5 -47 c-2 -26 0 -55 4 -63 5 -9 8
-36 6 -61 -3 -37 -13 -55 -50 -99 -26 -29 -63 -73 -84 -98 -20 -24 -45 -55
-57 -69 -11 -14 -24 -29 -28 -35 -44 -56 -91 -110 -138 -160 -31 -33 -65 -72
-75 -86 l-19 -26 197 -6 c109 -3 206 -9 215 -12 9 -4 19 -15 22 -25 3 -10 17
-20 30 -23 21 -3 30 3 54 43 21 34 37 49 58 53 15 3 200 3 410 0 361 -6 384
-5 403 12 19 17 37 18 268 11 248 -7 446 -17 687 -36 206 -17 213 -18 227 -45
7 -14 26 -43 43 -66 44 -61 28 -81 -105 -131 -102 -38 -512 -160 -584 -173
-20 -4 -38 -11 -41 -15 -7 -12 167 -82 415 -166 147 -51 187 -58 146 -29 -10
8 -15 19 -11 24 3 6 -1 14 -9 17 -9 3 -16 9 -16 14 0 6 165 71 220 85 21 6 44
46 140 241 63 128 121 236 128 239 8 3 114 10 235 15 122 5 245 12 272 15 28
3 172 10 320 15 154 6 304 17 349 25 43 8 108 15 145 15 l67 0 -2 -32 c-1 -18
-11 -73 -21 -121 -23 -106 -38 -123 -143 -161 -41 -15 -89 -33 -105 -40 -17
-7 -45 -17 -63 -20 -37 -9 -37 -9 -16 -41 11 -16 13 -29 6 -42 -5 -10 -7 -24
-5 -30 5 -14 -30 -119 -59 -175 l-18 -38 29 0 c22 0 64 24 148 83 65 45 131
89 146 97 45 23 68 49 132 154 74 121 77 125 96 156 9 14 38 59 64 100 109
172 107 169 146 170 34 0 35 -1 32 -32 -3 -18 -9 -43 -15 -54 -8 -17 -4 -34
17 -81 l26 -60 -23 -35 c-13 -20 -30 -49 -40 -64 -76 -133 -139 -242 -148
-254 -6 -8 -19 -34 -30 -57 -11 -24 -24 -43 -31 -43 -6 0 -9 -6 -6 -14 3 -8
-6 -26 -20 -40 -14 -14 -23 -26 -20 -26 10 0 -124 -255 -141 -267 -24 -20 -57
-16 -111 13 -59 30 -88 68 -71 90 17 19 5 44 -20 44 -12 0 -78 -38 -147 -85
-69 -47 -130 -85 -135 -85 -27 0 -103 48 -130 82 l-31 40 15 46 c37 109 57
157 67 160 6 2 11 11 11 20 0 24 67 159 82 166 7 3 -12 4 -42 3 -51 -3 -543
-153 -785 -240 l-90 -32 -167 -335 -167 -335 -61 -35 c-34 -18 -78 -49 -100
-67 -21 -18 -42 -33 -47 -33 -13 0 -63 -54 -63 -67 0 -6 -7 -16 -15 -23 -9 -7
-15 -23 -13 -34 2 -12 -3 -26 -10 -32 -8 -5 -26 -34 -40 -64 -24 -47 -31 -54
-59 -57 -39 -3 -41 6 -14 68 11 24 21 49 21 54 1 6 11 23 22 38 11 15 17 34
14 42 -3 8 0 18 7 22 7 5 22 28 34 53 115 238 188 392 229 480 27 57 63 132
80 167 25 50 28 63 17 68 -32 12 -51 3 -98 -46 -28 -27 -65 -57 -82 -66 -32
-15 -37 -14 -155 27 -308 107 -453 162 -578 220 -74 34 -148 64 -165 67 -35 5
-89 -12 -80 -27 6 -9 3 -16 -30 -80 -9 -19 -49 -107 -87 -195 -38 -88 -74
-162 -79 -166 -24 -14 -71 6 -111 47 -62 65 -70 90 -48 150 19 51 85 182 101
198 5 6 9 18 9 28 0 10 5 18 10 18 6 0 10 6 10 13 0 18 24 67 33 67 4 0 7 9 7
21 0 18 40 116 71 171 5 10 9 22 9 27 0 5 18 40 40 78 l39 68 -31 6 c-46 10
-277 10 -327 0 -24 -5 -47 -14 -50 -20 -4 -7 -54 -14 -120 -18 -98 -5 -113 -9
-123 -26 -10 -20 -8 -20 236 -13 l247 8 -7 -28 c-11 -43 -47 -93 -71 -100 -13
-3 -21 -10 -18 -14 7 -12 -32 -19 -188 -36 -294 -30 -319 -34 -342 -52 -12 -9
-20 -23 -17 -30 2 -7 -5 -16 -16 -19 -11 -2 -22 -14 -25 -25 -5 -18 -2 -19 46
-16 29 3 148 21 266 41 118 21 239 37 268 37 51 0 53 -1 38 -16 -9 -10 -14
-25 -12 -36 3 -10 -1 -21 -8 -26 -7 -4 -14 -16 -16 -26 -2 -10 -20 -32 -39
-47 -30 -24 -57 -32 -185 -54 -202 -35 -279 -51 -417 -85 -65 -17 -127 -30
-139 -30 -11 0 -47 15 -79 32 -86 48 -110 116 -45 131 19 5 19 5 -3 12 -28 9
-24 27 9 36 16 5 18 7 7 8 -10 1 -18 4 -18 8 0 13 154 163 167 163 22 0 15 16
-12 28 -20 9 -32 8 -60 -5 -19 -9 -35 -20 -35 -24 0 -9 -226 -169 -239 -169
-6 0 -15 -9 -21 -20 -6 -11 -17 -20 -24 -20 -7 0 -21 -9 -31 -20 -10 -12 -58
-47 -106 -80 -84 -56 -156 -111 -244 -184 -22 -18 -60 -43 -84 -56 -38 -19
-50 -21 -80 -11 -42 12 -196 111 -227 145 l-20 23 -12 -66 c-7 -43 -9 -91 -3
-137 8 -72 -6 -244 -22 -260 -4 -4 -6 115 -4 265 1 149 0 277 -4 283 -7 11
-69 -49 -109 -106 -8 -12 -53 -66 -100 -122 -47 -56 -114 -136 -150 -179 -144
-171 -145 -173 -192 -185 -23 -7 -76 -29 -119 -51 -42 -21 -79 -39 -83 -39 -4
0 -14 -7 -22 -15 -14 -13 -74 -22 -74 -11 0 3 28 40 63 83 34 43 71 89 82 104
11 14 47 61 80 104 33 43 72 95 87 116 15 21 60 79 100 127 40 49 92 115 115
148 63 87 136 164 155 164 11 0 15 5 12 14 -3 7 2 21 11 30 22 21 9 37 -49 65
-52 26 -85 27 -93 4 -9 -24 -60 -83 -95 -110 -25 -18 -48 -22 -156 -27 -70 -4
-228 -13 -352 -21 -391 -26 -647 -37 -897 -41 -134 -1 -247 -5 -252 -8 -5 -3
-83 -10 -175 -16 -153 -10 -170 -9 -223 9 -94 31 -234 93 -346 153 -35 18 -37
22 -24 36 10 10 47 18 106 22 69 6 113 17 193 48 57 22 131 48 166 58 36 10
62 23 62 31 0 14 260 144 622 309 581 266 710 328 727 348 15 18 17 133 7 402
l-9 220 27 21 c16 13 49 24 87 28 33 4 71 10 85 14 33 8 87 8 102 -2z m15809
-73 c14 -14 14 -18 -7 -46 l-23 -32 19 -35 c17 -31 25 -36 52 -35 18 1 32 -1
32 -4 0 -15 -76 -82 -92 -82 -10 0 -23 10 -28 23 -5 12 -23 42 -39 67 -42 61
-40 81 12 124 48 41 53 42 74 20z m-16839 -207 c36 -33 59 -86 67 -152 4 -33
12 -82 19 -110 13 -53 11 -75 -7 -75 -6 0 -21 -10 -34 -22 l-23 -21 -8 23 c-5
13 -5 41 -2 62 7 38 4 140 -5 166 -7 20 -27 3 -20 -18 3 -11 -4 -30 -21 -49
-20 -24 -24 -38 -20 -57 5 -18 11 -24 23 -20 12 5 14 1 8 -21 -8 -35 -39 -68
-55 -58 -7 4 -11 33 -10 73 0 37 0 118 0 181 0 62 3 118 6 123 9 14 55 0 82
-25z m17022 -57 c99 -24 134 -36 137 -46 2 -6 -52 -58 -119 -116 -224 -191
-292 -250 -354 -303 -33 -30 -88 -77 -122 -105 l-61 -51 -83 22 c-46 12 -95
24 -111 26 -15 3 -29 9 -32 13 -5 8 56 65 290 265 70 61 171 149 224 196 125
111 140 121 171 114 14 -3 41 -10 60 -15z m-7420 -349 c25 -7 24 -7 -21 -51
-25 -25 -60 -65 -76 -90 -41 -60 -49 -65 -186 -133 -65 -31 -148 -76 -185 -99
-37 -22 -128 -72 -202 -111 -395 -204 -376 -193 -359 -213 6 -8 17 -14 24 -14
10 0 235 -130 255 -147 3 -3 -3 -9 -13 -14 -9 -6 -15 -14 -12 -20 4 -5 -4 -13
-17 -18 -23 -9 -22 -10 7 -16 17 -4 39 -13 49 -20 16 -12 17 -17 6 -30 -10
-12 -10 -15 3 -15 15 0 47 -23 91 -66 11 -11 75 -51 141 -90 66 -38 127 -73
136 -79 9 -5 36 -21 60 -34 24 -13 117 -66 206 -117 89 -51 190 -107 224 -125
72 -36 75 -36 354 1 83 11 263 33 400 50 138 16 286 34 330 40 382 48 480 58
489 49 8 -8 10 -84 3 -96 -8 -13 -10 -14 -302 -48 -115 -14 -284 -34 -375 -45
-91 -11 -259 -31 -375 -45 -281 -34 -279 -33 -265 -50 8 -10 8 -15 -1 -21 -8
-5 -5 -12 11 -24 16 -12 21 -23 15 -38 -10 -33 -43 -28 -125 19 -80 45 -137
68 -160 63 -133 -24 -190 -30 -199 -21 -14 14 -14 53 0 79 9 17 17 19 47 13
l37 -7 -19 21 c-11 12 -23 21 -28 21 -5 0 -25 10 -46 23 -20 13 -107 60 -192
104 -225 117 -327 171 -580 306 -154 82 -183 99 -258 150 -40 26 -80 51 -90
55 -9 4 -43 22 -75 40 -49 29 -63 33 -97 27 -25 -4 -40 -12 -40 -21 0 -8 -8
-22 -18 -32 -10 -10 -17 -23 -14 -30 2 -6 -8 -23 -21 -36 -14 -14 -22 -28 -19
-31 4 -3 2 -9 -3 -13 -6 -4 -28 -43 -50 -86 -47 -94 -71 -126 -92 -126 -25 0
-76 28 -115 64 l-37 34 34 68 c19 37 37 80 40 96 4 15 11 31 16 34 6 3 3 11
-7 18 -15 11 -12 20 30 93 25 44 46 85 46 91 0 7 11 14 25 18 24 6 24 7 8 20
-11 8 -13 13 -5 14 6 0 12 6 12 13 0 8 21 50 48 93 26 44 67 119 91 167 38 76
47 87 70 87 14 1 77 3 138 6 l113 6 -7 -33 c-3 -19 -12 -43 -18 -54 -7 -11
-31 -55 -54 -97 l-41 -77 33 6 c31 6 162 67 532 248 94 46 215 103 270 128 55
25 159 75 230 110 137 69 136 69 175 58z m-9660 -145 c-8 -12 -8 -22 -2 -28 7
-7 23 4 48 31 71 75 100 41 44 -51 -16 -26 -30 -59 -30 -73 0 -23 -4 -25 -44
-25 -52 0 -53 2 -50 118 1 51 7 88 15 98 12 15 14 12 22 -17 6 -23 5 -40 -3
-53z m15836 -223 c0 -11 5 -17 13 -15 10 2 12 -5 7 -28 -8 -43 -134 -179 -159
-172 -10 2 -27 23 -38 44 l-21 40 29 30 c37 40 142 118 158 118 7 0 12 -8 11
-17z m-7711 -23 c3 -5 1 -10 -4 -10 -6 0 -11 -9 -11 -20 0 -26 -93 -201 -129
-243 -8 -10 -16 -24 -17 -30 -3 -20 -95 -186 -113 -204 -9 -9 -16 -21 -17 -27
0 -16 -54 -118 -72 -138 -8 -10 -12 -18 -8 -18 4 0 -2 -13 -14 -30 -12 -16
-28 -30 -36 -30 -8 0 -14 -7 -14 -15 0 -12 -14 -15 -65 -15 -51 0 -65 3 -65
15 0 8 -9 15 -19 15 -16 0 -23 16 -41 98 -12 53 -23 102 -25 108 -2 6 2 17 8
23 8 8 7 11 -6 11 -9 0 -17 7 -17 15 0 22 -46 19 -70 -5 -11 -11 -19 -23 -18
-28 4 -14 -23 -52 -37 -52 -8 0 -12 -6 -9 -14 6 -15 -45 -116 -58 -116 -4 0
-15 -9 -25 -19 -10 -11 -43 -24 -77 -30 -59 -11 -142 -14 -118 -4 21 8 13 23
-13 23 -14 0 -25 1 -25 3 0 1 16 31 35 67 19 36 43 84 54 108 11 23 24 42 29
42 5 0 9 6 9 13 0 6 22 50 48 97 115 203 185 333 185 344 0 24 31 54 63 60 53
10 92 -9 106 -52 20 -62 69 -235 78 -277 7 -33 13 -41 35 -43 29 -4 43 15 124
169 72 139 115 208 133 212 34 9 210 7 216 -3z m7423 -378 c-1 -10 4 -27 10
-40 l13 -23 29 21 c15 11 32 20 38 20 5 0 10 -61 12 -147 1 -82 3 -170 3 -198
1 -27 0 -93 -1 -145 -2 -52 -1 -382 2 -733 2 -350 1 -649 -3 -665 -4 -15 -4
-43 1 -62 4 -19 7 -195 7 -390 0 -195 -1 -366 -1 -380 2 -97 -2 -1059 -5
-1200 -3 -268 -6 -294 -26 -298 -21 -4 -23 -32 -3 -32 21 0 28 -31 21 -87 -9
-71 -8 -152 3 -203 5 -25 10 -288 10 -585 l1 -540 -27 -22 -27 -22 24 -1 c21
0 23 -3 17 -31 -3 -18 -1 -38 5 -45 18 -22 -5 -40 -52 -42 -22 -1 -45 -5 -51
-8 -6 -4 -8 1 -6 12 2 11 17 21 38 27 47 12 53 19 41 50 -10 25 -13 26 -56 20
-51 -7 -56 0 -20 29 14 11 25 26 25 33 0 8 9 20 21 29 20 14 20 15 2 30 -65
58 -80 75 -91 113 -9 30 -9 49 -2 69 8 21 8 34 -1 51 -9 17 -9 26 -1 36 9 10
11 93 10 283 -1 148 -1 404 -1 569 1 365 1 310 1 550 0 307 3 409 13 421 6 7
5 22 -1 39 -13 34 -15 142 -11 608 0 57 0 211 -1 727 0 278 1 561 3 630 4 115
6 125 24 128 30 6 43 21 38 42 -6 22 -29 27 -36 8 -4 -10 -7 -10 -18 0 -10 9
-13 49 -12 165 0 83 0 179 0 212 -4 210 2 380 13 400 9 18 9 27 0 45 -13 24
-23 173 -14 202 4 14 13 16 50 11 35 -5 44 -3 44 9 0 9 3 30 6 47 6 29 4 31
-21 31 -20 0 -26 4 -21 15 6 17 -13 65 -26 65 -5 0 -7 -4 -4 -9 3 -5 0 -14 -8
-20 -11 -9 -15 -4 -20 26 -9 59 -7 86 9 117 8 15 15 37 15 48 0 11 5 16 10 13
6 -4 10 -14 8 -23z m-3264 -804 c11 -42 6 -113 -10 -136 -8 -12 -10 -22 -5
-22 7 0 11 -28 11 -73 0 -41 3 -77 7 -80 3 -4 7 -53 9 -109 1 -57 3 -142 4
-189 1 -48 -3 -96 -9 -107 -6 -11 -8 -34 -5 -52 5 -24 2 -36 -15 -54 -22 -23
-22 -23 -2 -29 29 -7 26 -22 -9 -47 -43 -30 -40 -54 5 -47 47 8 48 -17 1 -33
-18 -6 -44 -22 -56 -35 -27 -29 -40 -32 -40 -9 0 11 -6 14 -20 9 -16 -5 -22 0
-31 22 -21 54 -33 149 -35 278 -1 72 -5 261 -9 422 l-7 292 24 5 c12 3 32 7
43 9 11 3 48 5 81 6 56 1 62 -1 68 -21z m-6408 -74 l52 -5 -3 -42 c-2 -44 -14
-82 -45 -142 l-19 -37 432 2 c238 2 437 2 442 0 6 -1 -1 -6 -15 -10 -14 -4
-215 -8 -446 -9 -461 -1 -430 3 -441 -56 -8 -41 -57 -170 -67 -177 -6 -4 -28
-8 -50 -8 -37 0 -38 1 -32 28 4 15 16 44 27 65 10 21 19 43 19 50 0 7 9 30 21
51 11 21 18 41 15 44 -3 3 -1 10 4 17 5 7 26 42 45 79 28 55 32 68 20 73 -15
5 -125 -5 -125 -12 0 -2 4 -15 10 -29 9 -25 9 -26 -35 -26 l-44 0 0 69 c0 68
0 70 27 73 54 6 158 7 208 2z m-3303 -20 c40 -19 87 -87 87 -126 0 -18 -14
-43 -43 -75 -23 -27 -63 -76 -89 -110 -27 -34 -54 -63 -60 -66 -7 -2 -9 -8 -5
-13 11 -11 135 -22 150 -12 15 9 37 -10 37 -33 0 -22 4 -21 -120 -19 -52 1
-99 6 -105 11 -12 12 11 79 34 99 37 33 128 147 143 181 35 78 -1 115 -104
106 -59 -5 -68 1 -48 33 6 9 25 15 54 15 25 0 46 1 46 3 0 1 -10 7 -22 12 -17
6 -19 9 -6 9 10 1 33 -6 51 -15z m1395 -4 c44 -27 71 -90 67 -152 l-3 -48 56
-1 c84 -1 113 -17 33 -18 -80 -1 -103 -17 -90 -63 14 -50 -7 -114 -48 -145
-44 -33 -121 -42 -175 -19 -54 23 -69 57 -69 155 0 63 -10 71 -88 71 -46 0
-62 3 -51 10 8 5 43 10 78 10 l62 0 0 65 c0 112 38 154 140 155 38 0 65 -6 88
-20z m3308 -7 c4 -16 0 -44 -11 -72 -9 -25 -20 -56 -22 -68 -3 -13 -9 -23 -14
-23 -17 0 -9 -20 9 -20 14 -1 12 -3 -6 -13 -12 -7 -19 -16 -16 -20 4 -4 0 -7
-8 -7 -18 0 -30 -54 -15 -69 5 -5 1 -12 -12 -16 -22 -7 -24 -12 -21 -61 2 -38
-26 -72 -65 -79 -47 -9 -59 5 -42 46 8 19 15 39 16 44 1 6 9 18 18 27 14 16
14 18 -2 24 -15 6 -16 9 -3 18 8 6 23 23 32 39 14 21 15 27 5 28 -10 0 -11 2
-1 6 17 7 15 21 -5 26 -14 4 -14 5 3 6 12 0 27 8 34 16 7 8 18 15 24 15 6 0
17 14 23 30 6 17 18 30 27 30 19 0 21 16 4 23 -7 3 -4 6 7 6 17 1 17 3 5 11
-17 11 -102 13 -147 4 -25 -5 -29 -9 -25 -34 3 -22 -1 -30 -17 -35 -46 -14
-56 0 -56 75 l0 70 137 0 138 0 6 -27z m7705 -133 c16 0 10 -33 -16 -85 -30
-61 -31 -77 -5 -93 14 -8 20 -23 20 -46 0 -19 5 -38 11 -42 17 -10 1 -123 -22
-152 -10 -14 -19 -20 -19 -13 0 6 -7 11 -15 11 -8 0 -15 9 -15 20 0 11 5 20
10 20 6 0 10 6 10 14 0 18 -38 28 -61 15 -10 -5 -22 -9 -27 -9 -15 0 -24 50
-12 65 25 30 -43 148 -69 122 -8 -8 -11 -3 -11 16 0 18 4 25 14 21 15 -6 30
22 20 38 -4 7 -10 4 -16 -6 -5 -9 -13 -16 -18 -16 -12 0 -22 34 -14 54 8 22
69 50 113 52 20 0 47 6 61 12 14 6 31 9 38 6 8 -2 18 -4 23 -4z m-1352 -44
c10 -11 8 -23 -8 -55 -25 -48 -27 -93 -5 -126 9 -14 13 -32 10 -41 -4 -10 1
-25 10 -35 12 -13 15 -28 10 -51 -4 -18 -6 -44 -6 -57 0 -13 -6 -32 -14 -40
-13 -15 -41 -110 -34 -116 2 -2 30 -17 63 -35 88 -47 123 -76 159 -134 107
-168 37 -391 -150 -478 -148 -69 -319 -19 -416 123 -115 166 -44 391 150 483
66 32 74 41 42 49 -29 8 -24 24 13 41 58 27 72 25 72 -9 0 -16 5 -33 10 -37
25 -19 31 -5 30 67 -1 42 2 78 7 81 22 14 4 24 -31 18 -33 -5 -41 -3 -51 16
-6 12 -9 29 -5 38 3 8 3 35 -1 60 -5 37 -11 46 -35 54 -33 11 -39 29 -36 103
2 44 5 51 31 63 16 8 51 15 78 17 27 1 52 5 55 9 11 11 40 6 52 -8z m-6944
-547 c2 -202 -2 -260 -20 -253 -9 4 -14 -15 -18 -63 -6 -77 0 -96 19 -62 12
21 13 8 14 -101 1 -69 5 -145 10 -170 7 -36 5 -52 -9 -82 -10 -21 -15 -38 -11
-38 18 0 36 -237 20 -260 -9 -13 -11 -13 -21 0 -8 11 -12 12 -16 3 -2 -7 -8
-13 -13 -13 -17 0 -70 52 -70 68 0 16 -65 64 -120 88 -65 30 -146 167 -110
189 6 3 10 19 10 36 0 16 -4 29 -10 29 -10 0 -11 -10 -17 -125 -1 -33 -3 -69
-4 -80 -1 -11 1 -28 5 -37 6 -12 0 -25 -17 -41 -14 -13 -23 -28 -19 -33 15
-21 78 -63 107 -70 74 -17 161 -115 180 -201 6 -32 5 -33 -24 -33 -16 0 -33 5
-36 10 -3 6 -15 10 -26 10 -11 0 -30 11 -43 25 -24 26 -50 32 -61 15 -4 -6
-16 -8 -27 -4 -14 4 -29 -3 -54 -27 -40 -39 -42 -48 -9 -41 31 5 42 -19 26
-54 -9 -21 -8 -29 9 -52 24 -32 40 -164 22 -176 -6 -3 -50 -9 -99 -12 -132 -9
-128 -17 -130 208 0 101 -4 316 -7 478 -10 459 -9 981 0 990 5 5 34 11 65 15
68 8 76 -3 53 -70 -22 -66 -21 -142 4 -195 15 -33 21 -39 21 -23 1 20 56 73
76 73 4 0 25 16 46 35 32 29 47 35 84 35 38 0 47 -4 62 -27 10 -16 26 -34 36
-42 11 -7 25 -29 33 -47 20 -48 32 -42 26 14 -3 33 1 59 12 80 15 29 14 35 -8
114 -14 46 -22 86 -18 90 11 10 56 15 66 7 5 -4 9 -85 11 -180z m-7132 105 c4
-7 14 -11 22 -8 11 4 15 -1 15 -18 0 -13 7 -34 16 -46 8 -12 10 -22 5 -22 -6
0 -11 5 -11 10 0 12 -27 13 -32 1 -1 -4 -29 -12 -62 -16 -37 -4 -56 -3 -52 3
10 16 -22 35 -48 28 -20 -5 -25 -2 -29 21 -7 37 0 50 31 62 35 12 135 2 145
-15z m8875 -395 l3 -289 -23 -9 c-13 -5 -28 -5 -33 -1 -14 12 -12 177 2 191 8
8 10 64 6 193 -4 135 -3 188 6 205 30 54 36 6 39 -290z m-5434 110 c9 7 23 7
47 0 19 -6 52 -12 74 -15 21 -3 44 -8 50 -12 5 -4 18 -5 28 -3 10 1 27 -5 38
-15 20 -18 26 -64 8 -64 -7 0 -9 -9 -5 -22 3 -13 1 -64 -5 -114 -9 -66 -9 -99
-1 -122 l11 -31 -34 19 c-18 10 -62 22 -97 25 -35 3 -80 8 -100 10 -33 5 -38
3 -38 -16 0 -12 -5 -19 -12 -17 -14 5 -30 56 -20 62 4 2 63 -2 132 -9 69 -7
127 -11 128 -10 8 7 -124 85 -144 85 -32 0 -54 10 -54 25 0 7 -6 15 -14 18 -9
4 -11 16 -7 44 6 34 4 40 -21 55 -23 14 -28 24 -26 50 2 25 -2 34 -22 44 -18
10 -20 14 -10 18 33 11 66 11 73 -2 6 -9 12 -10 21 -3z m-5391 -191 c9 -257 9
-250 -14 -300 -28 -60 -46 -61 -53 -5 -12 88 -13 94 -15 60 0 -18 -5 -33 -11
-33 -22 0 -30 46 -30 177 0 136 1 138 19 114 l18 -23 -3 33 -4 34 11 -34 c7
-23 7 -36 0 -40 -15 -10 -26 -91 -12 -91 6 0 11 6 11 14 0 8 6 16 13 19 8 3
11 27 10 84 -2 68 0 85 18 107 11 14 24 26 29 26 4 0 10 -64 13 -142z m3886
-40 c45 -16 51 -24 51 -70 0 -25 -7 -44 -21 -57 -20 -18 -20 -21 -5 -42 9 -13
16 -43 16 -66 0 -37 -3 -43 -21 -43 -18 0 -19 -3 -9 -15 6 -8 17 -13 23 -12
18 3 11 -126 -8 -163 -24 -45 -47 -38 -79 23 -22 44 -26 62 -20 96 5 34 9 39
21 30 25 -22 38 6 14 30 -12 12 -26 21 -31 21 -6 0 -10 34 -8 90 1 49 -2 93
-5 97 -4 3 -7 23 -7 44 0 50 24 59 89 37z m9491 -183 c0 -43 -18 -53 -96 -55
-32 -1 -99 -6 -149 -11 -49 -4 -160 -15 -245 -23 -85 -8 -211 -18 -280 -21
-255 -12 -281 -14 -319 -25 -22 -6 -91 -12 -153 -13 l-113 -2 0 25 c0 25 2 25
125 38 69 7 197 21 285 32 139 17 225 25 350 36 202 16 469 44 474 50 2 2 31
4 63 4 l58 0 0 -35z m-7736 -11 c10 -26 19 -202 12 -221 -6 -15 -8 -15 -16 -3
-6 8 -10 31 -11 50 0 19 -3 29 -6 23 -3 -8 -25 -13 -58 -13 l-53 0 -4 -35 c-3
-30 -1 -36 19 -41 13 -4 29 -4 37 -1 17 7 46 -23 46 -46 0 -22 -11 -21 -94 5
-57 18 -65 23 -47 30 17 6 20 13 15 33 -4 14 -1 32 6 40 16 19 5 54 -12 37 -8
-8 -17 -8 -32 0 -42 22 -43 53 -1 42 18 -4 30 1 47 19 27 29 45 25 83 -21 40
-48 50 -38 47 46 -4 68 7 95 22 56z m10766 -94 l20 -20 37 20 c44 23 68 25
103 7 20 -10 32 -10 60 0 56 19 90 15 142 -18 26 -17 48 -32 49 -33 0 0 2 -38
5 -82 3 -66 1 -84 -11 -94 -20 -17 -127 -21 -179 -8 -26 6 -42 6 -49 -1 -17
-17 -95 -13 -123 6 -30 19 -101 19 -124 -1 -19 -17 -142 -27 -184 -15 -18 5
-41 18 -51 29 -23 25 -35 25 -35 1 0 -31 -21 -38 -120 -43 -69 -4 -103 -1
-122 9 -24 11 -31 11 -50 0 -15 -10 -50 -14 -100 -13 -88 1 -119 18 -153 79
-16 30 -26 37 -51 37 -22 0 -36 7 -47 23 -12 19 -22 22 -56 19 -53 -5 -49 -18
15 -57 87 -53 108 -71 101 -89 -8 -21 -103 -22 -132 0 -22 16 -101 10 -121
-11 -18 -17 -160 -17 -194 0 -113 58 -84 212 44 236 43 8 53 6 93 -18 l46 -26
19 26 c19 26 22 27 124 27 105 0 105 0 131 -31 25 -30 26 -30 47 -11 58 53
135 58 205 13 38 -24 52 -28 84 -23 26 5 41 14 50 32 19 38 79 44 131 14 26
-16 14 -60 -19 -71 l-25 -8 30 -17 c29 -17 30 -16 47 8 82 116 142 139 237 89
27 -14 46 -20 46 -13 0 16 31 48 47 48 7 0 22 -9 33 -20z m-16407 -68 c5 -7
11 -148 8 -190 -1 -21 -5 -23 -31 -17 -19 4 -30 3 -30 -4 0 -6 9 -11 19 -11
30 0 36 -35 11 -60 -17 -17 -20 -30 -16 -63 2 -23 5 -46 5 -50 1 -5 6 -5 12
-1 7 4 9 0 5 -14 -4 -12 -2 -30 3 -41 17 -30 -5 -71 -38 -71 -26 0 -26 1 -26
78 0 89 -21 213 -37 223 -8 5 -7 26 3 76 11 54 18 69 34 72 25 4 35 19 35 54
0 20 5 27 19 27 11 0 22 -3 24 -8z m9427 -588 c0 -195 -4 -354 -8 -354 -5 0
-13 12 -19 28 -11 27 -11 26 -12 -13 -2 -52 -21 -27 -21 28 0 20 -4 37 -10 37
-6 0 -10 -45 -10 -115 0 -70 4 -115 10 -115 6 0 10 9 10 19 0 11 5 23 10 26 6
4 10 -20 10 -64 0 -56 -3 -71 -15 -71 -8 0 -15 -9 -15 -20 0 -11 5 -20 10 -20
6 0 10 -4 10 -10 0 -5 -7 -10 -15 -10 -10 0 -15 -10 -15 -31 0 -20 -4 -29 -12
-26 -7 2 -12 9 -11 14 5 23 3 243 -3 630 l-7 412 26 6 c14 4 30 5 34 2 5 -3
15 -2 23 3 8 5 18 6 22 4 4 -3 8 -165 8 -360z m136 351 c4 -8 10 -15 15 -15 5
0 9 7 9 15 0 8 5 15 10 15 6 0 10 -35 10 -85 0 -65 -3 -87 -14 -91 -12 -5 -15
-41 -16 -196 0 -105 -3 -195 -6 -200 -3 -4 -10 -6 -15 -3 -5 4 -9 -1 -9 -10 0
-9 5 -13 10 -10 6 3 10 2 10 -4 0 -5 3 -16 6 -25 4 -10 1 -16 -9 -16 -17 0
-30 -27 -21 -42 4 -6 1 -9 -7 -6 -11 4 -14 44 -15 209 -1 112 0 196 3 187 9
-37 20 -16 22 43 1 50 -1 60 -13 56 -19 -8 -26 21 -26 116 0 76 0 77 25 77 14
0 28 -7 31 -15z m8859 -42 c3 -32 11 -89 17 -126 5 -38 7 -94 3 -125 -12 -95
-7 -342 10 -460 9 -62 14 -121 11 -130 -11 -33 -9 -398 2 -512 12 -127 4 -375
-13 -375 -15 0 -23 117 -24 379 -1 131 -3 241 -5 245 -2 3 -6 130 -10 281 -13
562 -17 707 -22 783 -3 42 -2 82 1 87 14 23 24 7 30 -47z m-22207 -135 c7 -13
21 -35 32 -49 31 -38 19 -79 -24 -80 -83 -4 -150 1 -160 11 -15 15 4 43 40 55
46 16 54 24 54 56 0 24 4 29 23 29 15 0 28 -9 35 -22z m12813 -120 c43 -32 69
-79 69 -124 0 -45 -11 -67 -31 -63 -8 2 -24 -2 -36 -9 -13 -7 -65 -15 -117
-19 -91 -6 -94 -5 -109 18 -15 23 -37 112 -37 147 0 24 51 42 128 46 35 2 69
9 75 15 16 16 24 14 58 -11z m-1721 -116 c-5 -2 -10 -16 -10 -30 l0 -27 20 33
c11 17 22 32 24 32 3 0 2 -19 0 -42 -3 -24 -5 -51 -5 -60 0 -22 -15 -24 -22
-4 -3 8 -1 17 6 20 7 2 2 5 -10 5 -20 1 -23 -4 -23 -36 l-1 -38 -20 24 c-11
13 -22 21 -26 18 -5 -6 -10 -42 -12 -94 -1 -7 -4 -13 -8 -13 -10 0 -16 155 -8
197 5 27 11 32 38 35 31 3 78 -13 57 -20z m-3136 -552 c3 -239 5 -443 6 -453
0 -36 20 -5 20 33 0 21 5 42 10 45 6 4 10 -12 10 -40 0 -58 4 -60 185 -74 76
-6 141 -13 144 -17 3 -3 5 -73 4 -155 -1 -143 -1 -149 18 -149 14 0 19 -6 17
-17 -2 -10 -10 -18 -18 -18 -11 0 -16 -13 -18 -43 -3 -37 0 -44 17 -49 28 -7
28 -43 1 -43 -17 0 -20 -7 -20 -52 -1 -55 -9 -130 -16 -137 -8 -8 -74 34 -74
47 0 7 12 49 26 94 21 65 25 92 20 136 -17 148 -127 296 -176 237 -7 -8 -21
-15 -31 -15 -11 0 -19 -7 -19 -15 0 -8 4 -15 9 -15 14 0 32 -61 22 -74 -5 -6
-11 -22 -13 -36 -2 -15 -11 -26 -22 -28 -15 -3 -18 1 -14 22 7 37 -11 32 -24
-6 -10 -28 -12 -30 -24 -13 -17 23 -42 13 -50 -20 -7 -29 18 -106 42 -125 11
-10 14 -8 14 12 0 13 5 29 12 36 16 16 48 -13 48 -44 0 -28 18 -41 26 -20 11
30 24 16 24 -25 0 -58 -22 -169 -33 -169 -5 0 -16 9 -25 20 -10 10 -29 22 -43
25 -20 5 -28 1 -36 -17 -10 -23 -11 -23 -50 20 -26 28 -54 47 -84 56 l-44 13
-3 179 -2 179 30 33 c34 35 52 39 93 18 25 -14 27 -13 27 4 0 10 -16 51 -35
91 -41 86 -43 99 -12 99 47 0 47 -2 47 469 0 244 2 442 4 440 2 -2 7 -200 10
-439z m-4162 353 c9 -46 -4 -202 -18 -225 -4 -7 -3 -8 4 -4 23 14 11 -20 -13
-38 -14 -10 -25 -26 -25 -35 0 -11 4 -10 15 6 9 13 22 20 31 16 12 -5 12 -7
-3 -18 -10 -8 -19 -17 -19 -22 -5 -33 -31 -73 -49 -74 -15 -1 -16 -2 -4 -6 15
-4 15 -7 3 -32 -8 -16 -21 -34 -29 -41 -13 -11 -15 -6 -13 29 1 22 5 41 10 41
4 0 8 5 8 11 0 5 -4 8 -9 5 -11 -7 -21 78 -21 190 l0 92 58 65 c31 36 60 66
63 66 4 1 9 -11 11 -26z m-328 -310 c12 -38 14 -125 5 -155 -22 -69 -1 -268
28 -268 9 0 13 -16 13 -54 0 -39 6 -60 21 -80 42 -53 45 -156 5 -156 -22 0
-36 32 -37 87 0 26 -4 68 -8 93 l-7 45 -18 -40 c-12 -27 -17 -65 -17 -120 0
-45 -4 -87 -9 -94 -9 -16 -30 -6 -30 13 0 8 -11 21 -25 30 -34 22 -34 86 -1
148 33 61 48 210 34 333 -5 50 -14 94 -19 100 -5 5 -9 1 -9 -12 0 -12 -4 -25
-10 -28 -15 -9 -13 140 3 153 6 5 23 12 37 15 14 2 28 5 32 6 4 0 9 -7 12 -16z
m12196 9 c58 5 130 7 160 6 51 -3 55 -5 55 -28 0 -29 18 -27 -415 -55 -140 -9
-297 -20 -348 -24 -57 -4 -96 -3 -102 3 -12 12 -13 43 -2 49 4 3 115 13 247
22 132 9 249 20 260 25 11 4 25 4 30 0 6 -4 57 -3 115 2z m-6437 -190 c2 -11
17 -22 33 -25 16 -4 39 -9 52 -13 16 -5 22 -2 22 10 0 23 27 20 35 -4 9 -29
-12 -60 -40 -60 -16 0 -25 -6 -25 -15 0 -8 -4 -15 -10 -15 -5 0 -7 7 -4 15 9
23 -26 19 -52 -6 -28 -26 -59 -19 -51 11 3 13 0 20 -9 20 -8 0 -13 -9 -11 -22
2 -22 -1 -23 -83 -23 -102 0 -120 3 -120 21 0 8 17 15 43 18 85 11 91 13 40
15 -28 0 -58 4 -67 7 -17 7 -22 34 -6 34 6 0 10 10 10 22 0 19 1 20 18 5 11
-10 48 -18 110 -22 88 -7 94 -7 92 11 -3 27 -1 34 9 34 5 0 11 -8 14 -18z
m-8254 -142 c104 -11 119 -12 371 -25 80 -4 152 -11 160 -15 13 -7 15 -41 13
-237 -1 -125 -3 -249 -3 -274 l0 -46 -62 -6 c-74 -7 -85 -1 -118 52 -13 23
-29 40 -35 40 -43 -5 -65 2 -65 21 0 13 9 22 28 26 37 9 69 44 72 80 6 81 3
100 -20 132 -13 17 -29 32 -36 32 -7 0 -15 9 -19 19 -3 12 -12 18 -20 15 -7
-3 -25 2 -39 11 -47 31 -100 0 -134 -78 -12 -26 -19 -57 -17 -69 12 -60 18
-75 40 -100 25 -29 65 -38 65 -15 0 8 9 22 20 32 16 15 22 15 35 5 33 -27 9
-99 -29 -84 -10 4 -18 0 -22 -10 -3 -9 -13 -16 -21 -16 -36 0 -80 -31 -93 -68
-18 -46 -19 -113 -2 -130 7 -8 9 -19 5 -25 -4 -7 -8 -37 -8 -67 0 -38 -4 -54
-12 -53 -9 2 -11 -6 -6 -28 5 -29 4 -31 -16 -24 -17 5 -21 3 -18 -13 2 -11 9
-28 17 -37 12 -15 11 -19 -7 -33 -23 -18 -32 -50 -20 -68 10 -16 -12 -74 -28
-74 -8 0 -18 7 -23 17 -14 24 -46 9 -39 -19 4 -12 1 -28 -5 -35 -8 -10 -7 -23
5 -51 9 -20 15 -46 13 -57 -3 -11 -5 -26 -5 -33 -1 -7 -6 -10 -12 -7 -6 4 -20
-3 -31 -14 -15 -17 -23 -19 -33 -11 -20 17 -30 98 -17 134 8 19 8 34 2 41 -9
10 -9 83 0 110 2 6 0 22 -4 37 -4 15 -4 58 1 97 6 44 6 74 0 80 -5 5 -6 22 -2
38 5 15 7 33 5 38 -1 6 -2 44 -2 85 1 59 -3 79 -18 95 -10 11 -21 39 -25 62
-8 51 -17 59 -77 67 -27 4 -48 11 -48 15 0 16 26 31 53 31 46 0 64 16 71 61 4
23 15 53 26 66 16 21 19 42 19 149 1 69 3 130 6 135 8 12 40 11 164 -1z m8311
-24 l85 -11 5 -35 c12 -76 6 -152 -12 -164 -14 -8 -22 -7 -35 7 -17 17 -17 19
1 32 19 14 19 15 0 20 -10 3 -46 19 -79 35 -33 16 -76 31 -95 32 -33 3 -35 5
-35 38 0 27 6 37 25 47 29 15 29 15 140 -1z m-5510 -110 c6 -8 14 -48 17 -88
4 -65 3 -75 -17 -96 -15 -16 -28 -21 -43 -16 -26 8 -34 18 -47 64 -13 48 -13
63 6 110 13 33 21 40 44 40 15 0 33 -6 40 -14z m1298 -178 c5 -39 -19 -47
-126 -44 -96 3 -116 11 -110 42 3 15 16 20 68 25 36 3 88 6 115 5 47 -1 50 -3
53 -28z m8114 -232 c-3 -175 -11 -216 -16 -79 -4 113 -5 118 -15 108 -4 -6 -5
-68 -2 -140 7 -139 3 -186 -17 -193 -9 -3 -12 42 -12 192 0 108 3 196 6 196 4
0 13 -8 20 -17 11 -15 13 -6 14 69 0 47 3 95 8 105 12 30 17 -57 14 -241z
m-8114 97 l-3 -38 -70 2 c-147 4 -160 7 -160 34 0 21 5 25 50 30 28 3 81 7
118 7 l68 2 -3 -37z m-3824 -117 c8 -32 -2 -56 -24 -56 -20 0 -80 -57 -80 -76
0 -6 7 -17 15 -24 12 -10 15 -9 15 8 0 29 26 48 45 32 8 -7 15 -20 15 -28 0
-11 3 -13 10 -6 8 8 7 19 -2 39 -11 24 -10 29 7 41 10 8 24 14 29 14 20 -1 66
-73 81 -124 28 -100 29 -123 6 -142 -12 -10 -21 -28 -20 -39 0 -11 3 -14 6 -7
10 26 21 10 13 -19 -18 -62 -55 -79 -66 -32 -10 40 12 135 36 155 24 20 25 31
5 48 -9 7 -14 19 -11 27 3 7 1 13 -3 13 -13 0 -21 -27 -21 -74 0 -69 -29 -80
-128 -51 -74 22 -92 50 -87 132 6 102 14 126 37 120 14 -4 22 1 29 20 5 14 18
27 29 30 11 3 20 9 20 14 0 21 38 8 44 -15z m2526 -61 c0 -59 17 -75 27 -24
11 57 26 13 25 -78 0 -95 -12 -143 -37 -143 -8 0 -15 1 -15 3 0 1 9 31 20 67
13 42 16 66 9 71 -5 3 -96 9 -201 12 -105 4 -193 9 -196 11 -2 3 -2 12 2 21 5
14 24 16 163 10 173 -7 173 -7 173 56 0 20 3 39 7 42 16 17 23 3 23 -48z
m12566 44 c13 -21 -13 -28 -156 -38 -352 -25 -370 -25 -370 -2 0 11 4 23 10
26 5 3 61 9 122 12 62 3 115 7 117 9 11 10 270 3 277 -7z m-14833 -69 c5 -4 4
-17 -2 -28 -7 -14 -8 -23 -1 -27 5 -3 10 -46 10 -95 0 -87 0 -88 -27 -98 -18
-7 -22 -11 -10 -11 9 -1 17 -8 17 -16 0 -18 -16 -20 -23 -2 -3 7 -6 5 -6 -5
-1 -11 9 -20 24 -24 24 -6 26 -10 23 -58 -3 -47 -5 -51 -28 -51 -29 0 -50 -11
-50 -27 0 -7 4 -7 13 0 20 17 56 3 63 -25 7 -27 -1 -39 -31 -45 -41 -7 -21
-71 20 -65 6 1 11 -31 12 -76 3 -73 1 -78 -20 -86 -13 -5 -29 -16 -36 -24 -13
-16 -41 -13 -41 5 0 6 7 7 16 4 8 -3 12 -2 9 4 -3 6 -24 10 -46 10 -42 0 -46
5 -51 55 -3 27 0 30 22 27 14 -1 31 -11 39 -22 19 -27 38 -25 43 5 6 31 -4 38
-60 41 -51 2 -65 13 -60 45 2 18 10 25 31 27 24 3 28 7 25 30 -2 23 -8 27 -33
27 -27 0 -30 3 -33 37 -3 31 1 40 25 55 38 24 45 37 47 91 3 50 25 103 59 140
16 17 18 25 9 34 -7 7 -12 22 -12 35 0 13 -4 23 -9 23 -19 0 -42 32 -36 51 4
11 2 19 -4 19 -6 0 -11 8 -11 18 0 16 7 18 58 14 31 -2 61 -8 65 -12z m14833
-12 c16 -26 -29 -35 -194 -42 -92 -4 -202 -9 -244 -13 -67 -5 -79 -3 -84 11
-4 10 -3 21 2 26 10 10 245 26 406 29 71 1 109 -3 114 -11z m-3106 -105 c0
-54 3 -184 7 -290 3 -105 2 -200 -1 -210 -7 -17 -8 -17 -18 2 -11 19 -12 19
-18 -5 -9 -36 0 -191 11 -184 5 3 9 24 9 46 0 62 11 39 16 -34 2 -34 9 -112
15 -173 16 -161 16 -308 -1 -339 -16 -31 -30 -34 -30 -5 0 16 -4 19 -17 14
-47 -19 -61 -16 -72 16 -8 24 -15 29 -31 24 -11 -4 -20 -2 -20 4 0 6 -21 10
-47 9 -27 0 -42 -3 -36 -5 10 -4 9 -11 -2 -34 -17 -32 -40 -37 -72 -14 -19 13
-21 13 -28 -8 -4 -12 -6 -28 -6 -34 2 -16 -46 -18 -51 -3 -2 6 -18 13 -36 15
-29 4 -32 2 -27 -15 5 -17 2 -20 -25 -20 -18 0 -29 4 -25 10 3 6 2 10 -4 10
-5 0 -11 -4 -13 -9 -1 -6 -25 -13 -53 -16 -40 -4 -46 -3 -32 6 18 10 18 12 -3
34 -19 20 -26 22 -61 14 -22 -5 -46 -6 -52 -2 -7 4 -21 9 -32 10 -11 2 -21 8
-23 13 -6 17 -39 11 -45 -9 -3 -13 -17 -20 -48 -24 -24 -3 -46 -4 -48 -1 -8 8
-14 133 -7 150 5 13 9 15 18 6 16 -16 26 -15 30 2 2 12 12 11 50 -8 33 -16 50
-20 58 -12 7 7 10 6 10 -2 0 -7 15 -12 36 -12 27 0 37 5 41 20 6 23 23 27 23
5 0 -8 2 -15 4 -15 2 0 11 -3 20 -6 13 -5 16 1 16 31 0 32 -2 36 -15 25 -13
-11 -14 -10 -9 4 3 9 10 16 15 16 5 0 9 24 9 54 0 82 12 176 21 170 5 -3 9
-18 9 -35 0 -16 5 -29 10 -29 6 0 8 -11 4 -26 -5 -19 -4 -25 5 -20 6 4 11 1
11 -8 0 -8 -5 -16 -12 -18 -6 -2 -8 -10 -4 -16 11 -18 26 -14 26 6 0 10 3 22
8 26 4 4 7 11 7 14 1 4 4 19 8 35 8 30 36 37 36 10 0 -10 3 -33 7 -51 5 -26 9
-30 20 -21 8 6 14 19 14 28 0 24 25 57 33 44 4 -6 8 -27 9 -47 2 -27 7 -36 21
-36 11 0 21 9 24 20 8 29 26 25 21 -5 -3 -13 -1 -26 3 -27 7 -2 14 -33 18 -80
1 -5 6 -8 11 -8 6 0 10 6 9 13 -1 6 1 23 4 37 7 23 14 64 16 83 1 4 6 7 13 7
9 0 9 -3 1 -11 -14 -14 -5 -42 10 -32 6 3 7 1 3 -5 -4 -6 -1 -22 6 -34 7 -13
11 -26 10 -30 -3 -12 13 -9 25 3 9 9 10 6 6 -11 -4 -15 0 -27 11 -36 17 -12
16 -13 -3 -24 -14 -7 -21 -7 -21 0 0 5 6 10 13 10 6 1 1 9 -12 20 -12 11 -28
17 -33 14 -7 -4 -4 -10 5 -16 9 -5 14 -15 11 -22 -7 -18 25 -29 42 -15 8 6 25
9 38 5 15 -4 28 0 36 9 12 14 20 283 20 613 0 80 4 121 10 117 6 -4 10 -71 9
-176 -1 -115 2 -174 10 -182 8 -8 12 5 13 54 1 35 3 82 4 104 1 22 2 64 3 94
1 43 4 52 16 47 15 -6 19 82 15 387 -1 62 3 97 9 97 7 0 11 -36 11 -97z m3108
15 c-3 -22 -7 -23 -133 -29 -71 -4 -187 -10 -258 -13 -111 -6 -128 -5 -133 9
-4 9 -3 20 2 25 9 8 237 23 427 28 98 3 98 3 95 -20z m-12777 -12 c20 -10 39
-11 70 -5 94 18 113 10 98 -44 -10 -38 -12 -39 -79 -40 -14 -1 -33 -11 -43
-24 -20 -24 -87 -34 -87 -12 0 8 -5 8 -15 -1 -10 -8 -30 -10 -60 -6 -43 7 -45
9 -43 37 1 16 7 29 13 29 5 0 2 5 -7 11 -18 10 -24 49 -11 62 12 13 138 7 164
-7z m5553 -29 c31 -3 54 -10 62 -21 7 -11 30 -19 56 -21 23 -2 46 -4 49 -4 14
-2 26 -48 17 -65 -12 -21 4 -36 40 -36 12 0 22 -6 22 -13 0 -11 -30 -14 -138
-15 -165 -2 -196 4 -200 40 -2 18 -11 28 -28 32 -22 6 -24 11 -24 60 l0 54 48
-3 c26 -2 69 -6 96 -8z m7226 -36 c0 -11 -3 -22 -7 -24 -5 -3 -80 -7 -168 -11
-88 -3 -202 -9 -252 -12 -81 -6 -94 -4 -99 10 -4 10 -3 21 2 26 5 4 88 11 184
15 96 4 177 9 179 11 2 2 40 4 83 4 71 0 78 -2 78 -19z m-8515 -44 c47 -107
108 -148 134 -91 9 21 14 24 26 14 11 -9 13 -26 9 -69 -9 -89 -22 -121 -48
-121 -27 0 -46 20 -75 78 -12 23 -25 42 -29 42 -5 0 -18 9 -30 20 -19 18 -22
31 -22 100 0 44 2 80 6 80 3 0 16 -24 29 -53z m8510 -42 c0 -18 -9 -21 -85
-26 -47 -4 -164 -8 -260 -10 -147 -3 -175 -2 -175 10 0 23 44 29 268 37 117 3
214 8 217 11 11 10 35 -4 35 -22z m-2533 -40 c-23 -50 11 -115 61 -115 28 0
85 -67 98 -114 30 -111 37 -186 23 -252 -7 -35 -16 -68 -19 -73 -3 -5 1 -16 9
-23 18 -18 24 -52 31 -163 3 -49 9 -120 13 -157 5 -37 4 -64 0 -62 -4 3 -8 0
-8 -5 0 -6 5 -11 10 -11 25 0 6 -20 -27 -29 -49 -14 -400 -14 -408 -1 -3 6
-12 10 -18 10 -7 0 -6 -4 3 -10 13 -8 13 -10 -2 -10 -9 0 -22 8 -27 18 -10 16
-10 16 -11 -1 0 -10 -5 -15 -11 -12 -6 4 -8 13 -5 20 3 9 -4 12 -25 11 -17 -1
-32 1 -35 5 -5 9 -51 5 -61 -4 -10 -11 -25 -8 -18 3 3 6 -1 7 -9 4 -9 -3 -16
-2 -16 3 0 4 -10 19 -22 33 -23 25 -38 67 -20 56 14 -8 21 40 12 81 -5 20 -4
46 1 60 5 14 8 71 7 126 -1 56 -2 174 -2 262 l-1 160 70 6 c44 4 77 2 88 -5
19 -12 23 -41 7 -51 -17 -10 0 -26 21 -20 11 4 19 2 19 -4 0 -17 38 10 43 31
3 10 16 22 29 27 12 5 32 19 43 31 26 29 102 73 114 66 15 -10 19 57 5 79 -18
26 -18 44 3 67 15 17 18 17 32 4 12 -12 12 -20 3 -41z m2538 -46 c0 -16 -7
-19 -42 -20 -24 0 -95 -3 -158 -7 -206 -12 -325 -9 -325 8 0 8 14 17 35 22 36
8 469 26 483 20 4 -2 7 -12 7 -23z m-12392 -118 c2 -12 9 -20 15 -18 7 2 11
11 9 20 -3 15 18 16 225 11 125 -3 241 -6 257 -7 34 -2 46 -23 18 -32 -18 -5
-21 -19 -27 -140 -4 -74 -5 -141 -2 -149 4 -9 2 -18 -2 -20 -7 -4 -23 155 -22
217 0 9 -5 17 -10 17 -5 0 -9 -29 -8 -65 2 -64 -4 -85 -18 -72 -3 4 -9 46 -12
94 -5 67 -10 88 -21 90 -33 6 -37 -12 -43 -181 -6 -164 -16 -230 -18 -130 -1
27 -3 69 -4 94 -2 25 -4 63 -5 85 -1 22 -4 34 -7 27 -2 -6 -9 -10 -14 -6 -5 3
-9 -9 -9 -26 0 -19 -4 -29 -10 -25 -6 4 -10 24 -8 46 1 21 -3 44 -10 51 -9 9
-12 -15 -13 -107 0 -66 -4 -140 -8 -165 -7 -44 -9 -20 -21 223 -1 15 -3 15
-16 3 -8 -8 -14 -23 -15 -33 0 -12 -4 -9 -11 10 -15 42 -28 22 -29 -46 0 -34
-4 -82 -8 -107 -8 -41 -9 -38 -10 35 -1 44 -4 97 -7 118 -7 37 -27 50 -38 22
-3 -8 -1 -15 4 -15 6 0 8 -10 6 -22 -3 -13 -5 -25 -5 -27 -1 -2 -9 3 -19 12
-10 10 -22 14 -25 10 -4 -3 -8 -38 -9 -77 l-1 -71 -6 65 c-4 36 -3 75 1 87 4
12 4 23 0 26 -4 2 -1 2 5 1 11 -3 63 39 63 50 0 2 -14 2 -31 0 -25 -3 -30 -1
-25 12 4 12 2 15 -9 10 -15 -5 -20 10 -16 43 4 27 -17 0 -23 -30 -3 -18 -11
-29 -18 -27 -17 6 -38 124 -24 138 15 15 31 7 34 -19z m662 -116 c-4 -160 -5
-184 -13 -191 -4 -4 -7 25 -7 64 0 40 -4 72 -10 72 -5 0 -7 -7 -4 -15 7 -18
-10 -20 -24 -2 -5 6 -13 44 -17 82 -3 39 -11 74 -16 80 -19 19 -7 26 42 23
l52 -3 -3 -110z m326 94 c6 -5 19 -7 28 -3 14 5 16 -4 16 -76 0 -70 -2 -81
-15 -76 -17 6 -38 -34 -29 -57 2 -7 -3 -13 -14 -14 -16 -1 -19 4 -16 28 2 16
-1 29 -6 29 -6 0 -11 -19 -12 -42 -1 -24 -2 -53 -3 -65 0 -12 -4 -25 -8 -29
-4 -4 -7 31 -8 77 -1 191 -28 115 -30 -86 -1 -133 -16 -85 -20 64 -3 101 -5
109 -21 100 -13 -7 -18 -22 -18 -51 0 -23 -2 -39 -4 -37 -3 4 -15 130 -16 171
0 18 -50 46 -99 57 -13 4 -26 12 -28 18 -4 10 28 12 143 7 82 -3 153 -9 160
-15z m-3082 -28 c3 -4 -2 -42 -10 -82 -9 -41 -18 -97 -19 -125 -2 -28 -13 -81
-25 -117 -12 -37 -19 -74 -16 -82 10 -28 -5 -75 -25 -75 -19 0 -24 -27 -19
-102 1 -15 -4 -36 -10 -48 -10 -18 -7 -22 24 -35 19 -8 36 -20 39 -27 3 -10
10 -8 27 7 l23 20 -5 -27 c-3 -15 -2 -31 1 -37 4 -6 41 -16 84 -22 77 -11 77
-11 87 -48 13 -47 13 -84 -1 -98 -8 -8 -8 -17 0 -30 5 -11 8 -60 6 -114 -2
-52 -5 -127 -6 -166 -1 -55 -5 -73 -15 -73 -8 0 -14 6 -14 14 0 8 -5 16 -12
18 -6 2 -17 20 -24 39 l-12 34 -1 -42 c-1 -32 -6 -45 -21 -53 -17 -9 -20 -8
-20 10 0 11 -7 20 -16 20 -11 0 -14 6 -9 20 4 12 2 20 -4 20 -6 0 -20 14 -30
30 l-18 30 -11 -25 c-22 -49 -72 -22 -72 39 0 26 -23 36 -35 16 -3 -5 -11 -10
-16 -10 -6 0 -7 5 -4 10 3 6 2 10 -4 10 -5 0 -14 -8 -20 -17 -8 -15 -13 -15
-36 -5 -32 15 -30 15 -49 -4 -9 -8 -16 -28 -16 -43 0 -33 -20 -54 -39 -41 -8
4 -20 6 -27 3 -6 -2 -15 1 -19 6 -9 15 -25 4 -19 -13 3 -8 1 -17 -5 -21 -7 -4
-6 -14 4 -29 8 -12 12 -26 8 -29 -17 -17 -45 -4 -69 33 -18 26 -34 40 -48 40
-12 0 -27 5 -34 12 -16 16 -15 83 2 130 8 21 10 42 5 50 -12 19 -11 172 1 184
8 8 8 19 0 38 -14 38 -12 116 5 146 9 16 10 29 4 37 -7 7 -6 14 1 18 22 14 89
-73 82 -107 -1 -5 3 -8 9 -8 8 0 10 17 6 55 -3 30 -2 57 2 60 5 2 6 16 4 29
-5 22 -1 25 28 28 29 2 34 7 31 26 -2 12 2 22 7 22 6 0 11 -12 11 -27 0 -25 8
-166 15 -283 1 -25 3 -69 4 -99 1 -46 3 -52 16 -41 8 7 15 18 15 25 0 8 4 15
10 17 12 4 29 128 36 268 5 99 11 130 21 103 9 -25 22 -12 38 36 9 28 13 60 9
75 -11 46 5 134 32 165 26 31 34 61 12 44 -7 -6 -30 -13 -51 -16 -34 -5 -39
-3 -47 19 -7 18 -6 45 4 87 9 36 11 63 5 65 -15 6 -10 29 7 36 9 3 31 6 49 6
29 0 34 -4 37 -27 6 -49 33 -38 81 31 17 25 50 35 61 17z m7122 -28 c-7 -41
-8 -62 -5 -108 1 -16 -1 -70 -4 -120 -8 -117 -8 -202 -1 -297 5 -68 4 -79 -11
-84 -27 -11 -36 15 -30 81 7 76 9 134 7 209 -2 53 -4 58 -16 41 -8 -11 -20
-16 -29 -12 -20 8 -28 -14 -10 -31 19 -19 17 -68 -3 -76 -14 -5 -16 -18 -12
-79 6 -77 0 -118 -19 -124 -20 -7 -26 43 -13 114 14 77 14 163 -1 178 -5 5 -9
17 -9 27 0 9 -8 22 -17 28 -17 10 -17 10 0 20 9 6 17 21 17 33 0 38 15 51 49
44 35 -7 40 5 16 38 -10 13 -13 31 -9 55 7 40 27 60 61 60 16 0 23 6 23 20 0
11 5 20 11 20 7 0 9 -13 5 -37z m-6993 -62 c6 -6 4 -17 -6 -31 -20 -29 -12
-59 15 -52 17 4 19 0 16 -33 -3 -40 -28 -63 -28 -26 0 25 -15 28 -28 5 -12
-21 -52 -10 -52 14 0 12 -4 11 -17 -7 -15 -23 -17 -23 -23 -5 -4 10 -3 34 1
54 5 19 9 49 9 67 l0 32 51 -4 c29 -2 56 -8 62 -14z m8064 -34 c-4 6 4 13 18
16 31 5 45 -12 21 -25 -15 -8 -16 -18 -11 -60 l7 -50 -63 -61 -63 -61 -7 27
c-11 40 0 136 18 164 9 13 17 34 18 46 1 12 3 26 4 30 0 5 15 -2 33 -14 17
-13 29 -18 25 -12z m12223 -43 c57 -38 65 -80 25 -119 -32 -33 -59 -31 -106 6
-33 26 -38 36 -37 67 0 20 5 43 11 50 14 17 78 15 107 -4z m-4702 -82 c16 -17
30 -18 212 -11 125 5 199 4 205 -2 21 -21 -23 -29 -155 -29 -96 0 -143 -4
-162 -14 -18 -10 -64 -14 -143 -15 -64 0 -120 -3 -125 -6 -5 -3 -20 0 -32 8
-18 10 -54 12 -168 7 -80 -4 -149 -4 -154 1 -23 21 -2 23 307 35 150 6 168 8
178 25 12 24 17 24 37 1z m-16511 -78 c3 -8 12 -13 19 -10 8 3 26 1 41 -5 21
-8 28 -7 35 5 7 13 12 14 30 3 16 -9 22 -9 25 1 7 19 23 3 23 -24 0 -31 6 -30
35 4 28 32 35 28 41 -28 l5 -43 -35 6 c-29 5 -36 2 -41 -14 -9 -26 -31 -18
-28 10 4 28 -15 27 -19 -1 -4 -30 -56 -47 -73 -24 -7 9 -19 14 -28 10 -9 -3
-24 3 -36 15 -21 21 -71 29 -71 11 0 -5 -9 -10 -20 -10 -31 0 -37 44 -10 72
20 22 22 22 31 5 10 -17 12 -16 30 8 23 29 37 32 46 9z m21142 -121 c5 -10 11
-121 13 -246 3 -210 2 -229 -15 -238 -22 -13 -53 -4 -61 17 -3 9 -9 114 -13
234 -7 236 -4 250 43 250 13 0 28 -8 33 -17z m-22321 -44 c26 -10 31 -63 7
-76 -16 -9 -188 1 -205 12 -16 10 -12 30 14 58 22 23 28 25 92 20 38 -3 79
-10 92 -14z m6764 -116 c1 -27 1 -74 -1 -106 -2 -41 2 -65 14 -83 13 -20 14
-28 4 -40 -9 -11 -12 -65 -10 -194 l2 -180 -25 -10 c-18 -6 -24 -14 -19 -26 5
-14 3 -14 -15 -3 -21 13 -21 21 -24 262 -2 137 1 255 5 263 5 9 4 21 -3 29
-14 16 19 84 38 77 8 -2 12 7 12 27 0 50 20 35 22 -16z m294 -75 c4 -13 2 -24
-4 -26 -5 -1 -8 -11 -5 -20 2 -10 -5 -28 -16 -41 -23 -27 -23 -27 -15 -58 4
-14 14 -23 25 -23 14 0 19 -7 19 -25 0 -14 -2 -25 -4 -25 -17 0 -36 15 -36 27
0 26 -25 7 -28 -21 -3 -21 2 -29 16 -33 24 -6 33 -50 20 -106 -5 -22 -7 -46
-4 -54 4 -9 -4 -12 -29 -10 l-35 2 0 103 c0 82 -3 104 -15 108 -8 4 -12 10 -9
15 3 5 -6 9 -19 9 -41 0 -53 64 -14 80 12 6 30 15 39 22 14 10 21 9 39 -7 l21
-20 -7 52 c-8 60 -3 73 30 73 16 0 26 -7 31 -22z m-6813 -27 c4 -4 16 -33 28
-65 19 -57 20 -60 3 -113 -15 -46 -16 -65 -7 -117 11 -59 10 -62 -13 -83 -19
-17 -37 -23 -73 -23 -27 0 -53 6 -58 13 -6 6 -13 93 -17 193 -8 191 -7 196 39
206 24 6 87 -2 98 -11z m5679 -167 c4 -3 2 -14 -4 -24 -16 -26 0 -40 18 -16
16 23 19 14 4 -15 -6 -10 -17 -19 -24 -19 -7 0 -21 -9 -31 -20 -12 -13 -22
-17 -29 -10 -8 6 -26 4 -51 -5 -22 -7 -64 -16 -93 -20 -63 -8 -73 5 -45 64 19
40 40 51 104 51 25 0 29 -4 29 -26 0 -22 2 -25 15 -14 8 7 15 21 15 30 0 10 6
20 13 23 17 6 70 7 79 1z m1525 -60 c5 -15 7 -15 15 0 7 12 25 16 78 16 39 0
72 -5 76 -11 4 -8 9 -8 17 0 6 6 42 11 79 11 l68 0 0 -29 c0 -37 -10 -39 -182
-40 -122 0 -138 1 -138 16 0 15 -1 15 -13 -1 -14 -20 -119 -29 -150 -14 -11 6
-23 6 -30 1 -7 -5 -36 -9 -66 -9 -56 1 -80 18 -68 48 4 13 27 16 117 16 62 1
115 3 118 6 13 13 73 5 79 -10z m17 -136 c4 4 30 7 57 8 44 1 50 -2 55 -22 12
-47 6 -49 -149 -51 -80 -1 -150 -3 -154 -5 -4 -3 -24 -4 -43 -2 -19 1 -49 2
-66 3 -22 1 -33 7 -37 20 -10 41 5 46 153 47 78 1 144 5 147 8 3 3 11 1 18 -4
7 -5 15 -6 19 -2z m14684 -18 c12 -16 22 -36 22 -44 0 -40 43 -76 90 -76 12 0
28 -7 36 -15 14 -13 13 -15 -5 -15 -34 0 -32 -17 4 -39 23 -13 37 -30 41 -49
6 -29 28 -38 51 -20 7 5 21 7 33 3 23 -7 28 -53 8 -73 -15 -15 -58 -16 -58 -2
0 17 -21 11 -39 -12 -20 -23 -41 -17 -41 12 0 32 -11 50 -31 50 -10 0 -19 5
-19 10 0 6 -6 7 -17 1 -10 -5 -29 -14 -43 -20 -14 -6 -33 -16 -42 -23 -9 -7
-21 -9 -25 -4 -10 9 -17 289 -9 322 8 31 18 30 44 -6z m-14631 -185 c10 -11
16 -36 17 -73 1 -52 -1 -57 -22 -60 -13 -2 -28 1 -35 6 -7 5 -26 13 -44 16
-17 4 -41 16 -54 27 -12 10 -30 19 -41 19 -10 0 -18 4 -18 10 0 5 -6 7 -13 4
-19 -7 -87 24 -87 41 0 15 23 18 183 23 79 2 101 0 114 -13z m-4797 -121 c12
-3 15 -19 14 -74 -1 -39 -5 -75 -10 -80 -12 -11 -66 -16 -82 -7 -6 5 -12 19
-12 32 0 12 -7 25 -15 29 -19 7 -19 30 0 46 8 7 12 16 9 22 -3 5 -3 16 0 24 5
14 55 18 96 8z m4730 -491 c0 -19 -41 -93 -51 -93 -5 0 -9 7 -9 15 0 20 -13
19 -27 -3 -9 -15 -26 -19 -87 -20 -72 -2 -76 -1 -76 20 l0 21 -23 -21 c-25
-23 -97 -31 -97 -11 0 6 -7 9 -15 5 -22 -8 -18 12 5 24 11 6 22 21 26 34 3 13
15 27 27 30 29 7 31 3 12 -34 -24 -47 -11 -48 20 -1 15 22 34 42 43 43 10 2
70 4 135 4 88 0 117 -3 117 -13z m830 -951 c8 -12 13 -13 16 -4 9 19 32 14 39
-8 3 -11 10 -20 15 -20 5 0 14 9 20 20 8 15 21 20 49 20 46 0 57 -9 33 -26
-16 -12 -15 -13 8 -15 14 -1 32 -1 41 0 9 1 22 -5 29 -14 14 -17 40 -20 40 -4
0 5 4 7 10 4 10 -6 5 -438 -5 -456 -10 -15 -45 -10 -52 7 -3 9 0 20 8 24 7 5
15 24 17 42 2 18 0 29 -5 25 -4 -5 -8 -14 -8 -20 0 -15 -136 -20 -213 -8 -31
5 -66 5 -77 1 -13 -5 -27 -3 -38 5 -11 8 -42 11 -87 10 -39 -2 -72 0 -75 5 -2
4 -16 5 -30 2 -16 -3 -33 2 -46 14 -19 17 -20 26 -14 169 8 202 7 199 53 192
49 -8 107 5 107 23 0 24 14 28 86 29 54 0 71 -3 79 -17z"/>
<path d="M12478 11964 c-15 -5 -48 -89 -48 -123 0 -5 19 -15 43 -22 38 -10 59
-7 212 30 94 23 193 48 220 56 28 7 76 19 108 26 32 7 54 16 50 20 -9 9 -559
21 -585 13z"/>
<path d="M14580 11949 c-52 -4 -193 -15 -313 -23 -120 -9 -225 -19 -233 -24
-8 -4 -31 -44 -52 -88 -20 -43 -41 -82 -47 -86 -34 -25 67 2 550 147 83 25
170 50 194 57 37 9 41 13 25 19 -10 4 -21 7 -24 7 -3 0 -48 -4 -100 -9z"/>
<path d="M10740 11836 c-29 -36 -62 -68 -72 -72 -10 -3 -16 -9 -13 -14 3 -5
-7 -21 -22 -37 -70 -74 -101 -118 -86 -121 20 -5 71 16 113 47 67 49 125 88
160 106 19 10 37 21 40 24 3 4 40 30 82 58 44 29 73 55 67 59 -6 3 -57 9 -113
11 l-102 6 -54 -67z"/>
<path d="M12137 10733 c-12 -12 -8 -148 5 -161 9 -9 9 -12 0 -12 -17 0 -13
-98 5 -127 10 -17 21 -22 44 -19 17 2 37 10 44 17 16 16 26 117 13 125 -5 3
-7 13 -4 22 9 30 11 137 3 150 -8 13 -98 17 -110 5z"/>
<path d="M21732 9985 c-71 -31 -128 -90 -147 -154 l-8 -25 33 28 c27 22 41 27
79 25 44 -3 46 -2 52 29 11 55 59 92 119 92 16 0 30 5 30 10 0 15 -120 11
-158 -5z"/>
<path d="M21580 9699 c0 -28 43 -110 72 -136 45 -41 156 -84 158 -60 4 80 -1
100 -35 133 -33 31 -39 33 -85 27 -45 -5 -51 -3 -79 25 -27 26 -31 28 -31 11z"/>
<path d="M22075 9690 c-13 -15 -31 -20 -67 -20 -59 0 -83 -11 -102 -48 -18
-37 -27 -122 -12 -122 6 0 34 11 62 24 58 27 120 94 134 145 12 43 9 47 -15
21z"/>
</g>
</svg>
